#define goofy_car_1_width 128
#define goofy_car_1_height 32
static unsigned char goofy_car_1_bits[] = {
   0x00, 0x00, 0x00, 0x00, 0x00, 0x00, 0x00, 0x00, 0x00, 0x00, 0x00, 0x00,
   0x00, 0x00, 0x00, 0x14, 0x00, 0x00, 0x00, 0x00, 0x00, 0x00, 0x00, 0x00,
   0x00, 0x00, 0x00, 0x00, 0x00, 0x00, 0x00, 0x14, 0x00, 0x00, 0x00, 0x00,
   0x00, 0x00, 0x00, 0x00, 0x00, 0x00, 0x00, 0x00, 0x00, 0x00, 0x00, 0x14,
   0x00, 0x00, 0x00, 0x00, 0x00, 0x00, 0x00, 0x00, 0x00, 0x00, 0x00, 0x00,
   0x00, 0x00, 0x00, 0x14, 0x00, 0x00, 0x00, 0x00, 0x00, 0x00, 0x00, 0x00,
   0x00, 0x00, 0x00, 0x00, 0x00, 0x00, 0x00, 0x14, 0x00, 0x00, 0x00, 0x00,
   0x00, 0x00, 0x00, 0x00, 0x00, 0x00, 0x00, 0x00, 0x00, 0x00, 0x00, 0x14,
   0x00, 0x00, 0x00, 0x00, 0x00, 0x00, 0x00, 0x00, 0x00, 0x00, 0x00, 0x00,
   0x00, 0x00, 0x00, 0x14, 0x00, 0x00, 0x00, 0x00, 0x00, 0x00, 0x00, 0x00,
   0x00, 0x00, 0x00, 0x00, 0x00, 0x00, 0x00, 0x14, 0x00, 0x00, 0x00, 0x00,
   0x00, 0x00, 0x00, 0x00, 0x00, 0x00, 0x00, 0x00, 0x00, 0x00, 0x00, 0x14,
   0x00, 0x00, 0x00, 0x00, 0x00, 0x00, 0x00, 0x00, 0x00, 0x00, 0x00, 0x00,
   0x00, 0x00, 0x00, 0x14, 0x00, 0x00, 0x00, 0x00, 0x00, 0x00, 0x00, 0x00,
   0x00, 0x00, 0x00, 0x00, 0x00, 0x00, 0x00, 0x14, 0x00, 0x00, 0x00, 0x00,
   0x00, 0x00, 0x00, 0x00, 0x00, 0x00, 0x00, 0x00, 0x00, 0x00, 0x00, 0x14,
   0x00, 0x00, 0x00, 0x00, 0xfc, 0x0f, 0x00, 0x00, 0x00, 0x00, 0x00, 0x00,
   0x00, 0x00, 0x00, 0x22, 0x00, 0x00, 0x00, 0x00, 0x03, 0x30, 0x00, 0x00,
   0x00, 0x00, 0x00, 0x00, 0x00, 0x00, 0x00, 0x22, 0x00, 0x00, 0x00, 0x80,
   0xdd, 0x67, 0x00, 0x00, 0x00, 0x00, 0x00, 0x00, 0x00, 0x00, 0x00, 0x22,
   0x00, 0x00, 0x00, 0xc0, 0x52, 0xd8, 0x01, 0x00, 0x00, 0x00, 0x00, 0x00,
   0x00, 0x00, 0x00, 0x22, 0x00, 0x00, 0x00, 0x60, 0x49, 0xa0, 0x03, 0x00,
   0x00, 0x00, 0x00, 0x00, 0x00, 0x00, 0x00, 0x22, 0xff, 0xff, 0xff, 0xbf,
   0xcf, 0x3f, 0xff, 0xff, 0xff, 0xff, 0xff, 0xff, 0xff, 0xff, 0xff, 0xff,
   0x00, 0x00, 0x40, 0x07, 0x00, 0x00, 0xc0, 0x01, 0x00, 0x20, 0x00, 0x00,
   0x00, 0x20, 0x00, 0x00, 0xff, 0xff, 0xff, 0x00, 0x00, 0x00, 0x00, 0xfe,
   0xff, 0xff, 0xff, 0xff, 0xff, 0xff, 0xff, 0xff, 0x00, 0x00, 0x60, 0x00,
   0x00, 0x00, 0x00, 0x04, 0x00, 0x20, 0x00, 0x00, 0x00, 0x20, 0x00, 0x00,
   0x00, 0x00, 0x50, 0xc0, 0x03, 0x00, 0x0f, 0x04, 0x00, 0x10, 0x00, 0x00,
   0x00, 0x10, 0x00, 0x00, 0x00, 0x00, 0x48, 0xa0, 0x05, 0x80, 0x16, 0x04,
   0x00, 0x08, 0x00, 0x00, 0x00, 0x08, 0x00, 0x00, 0x00, 0x00, 0x44, 0x50,
   0x0a, 0x40, 0x29, 0x02, 0x00, 0x04, 0x00, 0x00, 0x00, 0x04, 0x00, 0x00,
   0x00, 0x00, 0x82, 0xab, 0x15, 0xa0, 0xd6, 0x01, 0x00, 0x02, 0x00, 0x00,
   0x00, 0x02, 0x00, 0x00, 0x00, 0x00, 0x01, 0xac, 0xf5, 0xbf, 0x16, 0x00,
   0x00, 0x01, 0x00, 0x00, 0x00, 0x01, 0x00, 0x00, 0x00, 0x80, 0x00, 0x40,
   0x02, 0x02, 0x09, 0x00, 0x80, 0x00, 0x00, 0x00, 0x80, 0x00, 0x00, 0x00,
   0x00, 0x40, 0x00, 0x80, 0x01, 0x01, 0x06, 0x00, 0x40, 0x00, 0x00, 0x00,
   0x40, 0x00, 0x00, 0x00, 0x00, 0x20, 0x00, 0x00, 0x80, 0x00, 0x00, 0x00,
   0x20, 0x00, 0x00, 0x00, 0x20, 0x00, 0x00, 0x80, 0x00, 0x10, 0x00, 0x00,
   0x40, 0x00, 0x00, 0x00, 0x10, 0x00, 0x00, 0x00, 0x10, 0x00, 0x00, 0x40,
   0x00, 0x08, 0x00, 0x00, 0x20, 0x00, 0x00, 0x00, 0x08, 0x00, 0x00, 0x00,
   0x08, 0x00, 0x00, 0x20, 0x00, 0x04, 0x00, 0x00, 0x10, 0x00, 0x00, 0x00,
   0x04, 0x00, 0x00, 0x00, 0x04, 0x00, 0x00, 0x10 };
