#define goofy_car_2_width 128
#define goofy_car_2_height 32
static unsigned char goofy_car_2_bits[] = {
   0x00, 0x00, 0x00, 0x00, 0x00, 0x00, 0x00, 0x00, 0x00, 0x00, 0x00, 0x00,
   0x00, 0x14, 0x00, 0x00, 0x00, 0x00, 0x00, 0x00, 0x00, 0x00, 0x00, 0x00,
   0x00, 0x00, 0x00, 0x00, 0x00, 0x14, 0x00, 0x00, 0x00, 0x00, 0x00, 0x00,
   0x00, 0x00, 0x00, 0x00, 0x00, 0x00, 0x00, 0x00, 0x00, 0x14, 0x00, 0x00,
   0x00, 0x00, 0x00, 0x00, 0x00, 0x00, 0x00, 0x00, 0x00, 0x00, 0x00, 0x00,
   0x00, 0x14, 0x00, 0x00, 0x00, 0x00, 0x00, 0x00, 0x00, 0x00, 0x00, 0x00,
   0x00, 0x00, 0x00, 0x00, 0x00, 0x14, 0x00, 0x00, 0x00, 0x00, 0x00, 0x00,
   0x00, 0x00, 0x00, 0x00, 0x00, 0x00, 0x00, 0x00, 0x00, 0x14, 0x00, 0x00,
   0x00, 0x00, 0x00, 0x00, 0x00, 0x00, 0x00, 0x00, 0x00, 0x00, 0x00, 0x00,
   0x00, 0x14, 0x00, 0x00, 0x00, 0x00, 0x00, 0x00, 0x00, 0x00, 0x00, 0x00,
   0x00, 0x00, 0x00, 0x00, 0x00, 0x14, 0x00, 0x00, 0x00, 0x00, 0x00, 0x00,
   0x00, 0x00, 0x00, 0x00, 0x00, 0x00, 0x00, 0x00, 0x00, 0x14, 0x00, 0x00,
   0x00, 0x00, 0x00, 0x00, 0x00, 0x00, 0x00, 0x00, 0x00, 0x00, 0x00, 0x00,
   0x00, 0x14, 0x00, 0x00, 0x00, 0x00, 0x00, 0x00, 0x00, 0x00, 0x00, 0x00,
   0x00, 0x00, 0x00, 0x00, 0x00, 0x14, 0x00, 0x00, 0x00, 0x00, 0x00, 0x00,
   0xfc, 0x0f, 0x00, 0x00, 0x00, 0x00, 0x00, 0x00, 0x00, 0x14, 0x00, 0x00,
   0x00, 0x00, 0x00, 0x00, 0x03, 0x30, 0x00, 0x00, 0x00, 0x00, 0x00, 0x00,
   0x00, 0x22, 0x00, 0x00, 0x00, 0x00, 0x00, 0x80, 0xdd, 0x67, 0x00, 0x00,
   0x00, 0x00, 0x00, 0x00, 0x00, 0x22, 0x00, 0x00, 0x00, 0x00, 0x00, 0xc0,
   0x52, 0xd8, 0x01, 0x00, 0x00, 0x00, 0x00, 0x00, 0x00, 0x22, 0x00, 0x00,
   0x00, 0x00, 0x00, 0x60, 0x49, 0xa0, 0x03, 0x00, 0x00, 0x00, 0x00, 0x00,
   0x00, 0x22, 0x00, 0x00, 0x00, 0x00, 0x00, 0xb8, 0xcf, 0x3f, 0x7f, 0x00,
   0x00, 0x00, 0x00, 0x00, 0x00, 0x22, 0x00, 0x00, 0xff, 0xff, 0xff, 0x07,
   0x00, 0x00, 0xc0, 0xff, 0xff, 0xff, 0xff, 0xff, 0xff, 0xff, 0xff, 0xff,
   0x40, 0x00, 0x80, 0x00, 0x00, 0x00, 0x00, 0x02, 0x01, 0x00, 0x00, 0x80,
   0x00, 0x00, 0x00, 0x40, 0xff, 0xff, 0x7f, 0x00, 0x00, 0x00, 0x00, 0xfc,
   0xff, 0xff, 0xff, 0xff, 0xff, 0xff, 0xff, 0xff, 0x40, 0x00, 0x40, 0xc0,
   0x03, 0x00, 0x0f, 0x04, 0x01, 0x00, 0x00, 0x80, 0x00, 0x00, 0x00, 0x40,
   0x20, 0x00, 0x40, 0x20, 0x06, 0x80, 0x10, 0x84, 0x00, 0x00, 0x00, 0x40,
   0x00, 0x00, 0x00, 0x20, 0x10, 0x00, 0x40, 0x90, 0x09, 0x40, 0x26, 0x42,
   0x00, 0x00, 0x00, 0x20, 0x00, 0x00, 0x00, 0x10, 0x08, 0x00, 0x80, 0x4b,
   0x12, 0x20, 0xc9, 0x21, 0x00, 0x00, 0x00, 0x10, 0x00, 0x00, 0x00, 0x08,
   0x04, 0x00, 0x00, 0xac, 0xf5, 0xbf, 0x16, 0x10, 0x00, 0x00, 0x00, 0x08,
   0x00, 0x00, 0x00, 0x04, 0x02, 0x00, 0x00, 0xa0, 0x05, 0x80, 0x16, 0x08,
   0x00, 0x00, 0x00, 0x04, 0x00, 0x00, 0x00, 0x02, 0x01, 0x00, 0x00, 0x50,
   0x02, 0x00, 0x09, 0x04, 0x00, 0x00, 0x00, 0x02, 0x00, 0x00, 0x00, 0x01,
   0x00, 0x00, 0x00, 0x88, 0x01, 0x00, 0x06, 0x02, 0x00, 0x00, 0x00, 0x01,
   0x00, 0x00, 0x80, 0x00, 0x00, 0x00, 0x00, 0x04, 0x00, 0x00, 0x00, 0x01,
   0x00, 0x00, 0x80, 0x00, 0x00, 0x00, 0x40, 0x00, 0x00, 0x00, 0x00, 0x02,
   0x00, 0x00, 0x80, 0x00, 0x00, 0x00, 0x40, 0x00, 0x00, 0x00, 0x20, 0x00,
   0x00, 0x00, 0x00, 0x01, 0x00, 0x00, 0x40, 0x00, 0x00, 0x00, 0x20, 0x00,
   0x00, 0x00, 0x10, 0x00, 0x00, 0x00, 0x80, 0x00, 0x00, 0x00, 0x20, 0x00,
   0x00, 0x00, 0x10, 0x00, 0x00, 0x00, 0x08, 0x00 };
